<?xml version="1.0" standalone="no"?>
<!DOCTYPE svg PUBLIC "-//W3C//DTD SVG 20010904//EN"
 "http://www.w3.org/TR/2001/REC-SVG-20010904/DTD/svg10.dtd">
<svg version="1.0" xmlns="http://www.w3.org/2000/svg"
 width="700.000000pt" height="700.000000pt" viewBox="0 0 700.000000 700.000000"
 preserveAspectRatio="xMidYMid meet">
<metadata>
Created by potrace 1.14, written by Peter Selinger 2001-2017
</metadata>
<g transform="translate(0.000000,700.000000) scale(0.100000,-0.100000)"
fill="#000000" stroke="none">
<path d="M1117 6414 c-1 -1 -20 -4 -42 -7 -86 -12 -150 -36 -229 -89 -122 -83
-193 -179 -243 -332 -15 -47 -16 -239 -18 -2462 -1 -1906 1 -2424 11 -2473 44
-212 202 -382 419 -447 57 -18 171 -18 2490 -19 l2430 0 78 28 c189 66 321
203 383 397 16 52 17 193 19 2470 2 2584 4 2462 -47 2583 -21 51 -122 197
-136 197 -4 0 -20 13 -37 28 -39 37 -205 123 -205 107 0 -3 -12 1 -27 7 -21 9
-622 12 -2436 13 -1324 1 -2408 0 -2410 -1z m1799 -1746 l-1 -583 -582 -1
-583 0 0 583 0 583 583 0 583 0 0 -582z m2334 -1 l0 -583 -582 1 -583 0 0 583
-1 582 583 0 583 0 0 -583z m-1175 -589 c6 -4 10 -117 10 -292 l-1 -286 291 0
291 0 0 -875 0 -875 -290 2 -291 3 0 282 c-1 155 -4 285 -8 289 -4 4 -264 8
-578 8 -498 1 -572 -1 -578 -14 -4 -8 -6 -140 -6 -292 l1 -278 -291 0 -291 0
1 873 0 872 290 5 291 5 -1 279 c0 186 4 283 11 290 11 12 1131 15 1149 4z"/>
</g>
</svg>
